<svg xmlns="http://www.w3.org/2000/svg" xmlns:xlink="http://www.w3.org/1999/xlink" width="500" zoomAndPan="magnify" viewBox="0 0 375 374.999991" height="500" preserveAspectRatio="xMidYMid meet" version="1.0"><defs><g/></defs><g fill="#ffffff" fill-opacity="1"><g transform="translate(0.726567, 206.624986)"><g><path d="M 33.234375 -0.046875 L 31.984375 -0.046875 L 31.984375 -11.484375 L 33.234375 -11.484375 Z M 31.984375 11.484375 L 23.78125 19.703125 L 4.96875 19.703125 L 4.96875 8.203125 L 15.578125 8.203125 L 15.578125 -31.15625 L 31.984375 -31.15625 Z M 31.984375 11.484375 "/></g></g></g><g fill="#ffffff" fill-opacity="1"><g transform="translate(33.877329, 206.624986)"><g><path d="M 50.40625 0 L 49.125 0 L 49.125 -11.453125 L 50.40625 -11.453125 Z M 49.25 0 L -1.234375 0 L -1.234375 -11.484375 L 12.9375 -11.484375 L 8.171875 -16.25 L 8.171875 -27.90625 L 16.375 -36.078125 L 41.046875 -36.078125 L 49.25 -27.90625 Z M 32.796875 -11.484375 L 32.796875 -24.578125 L 24.546875 -24.578125 L 24.546875 -16.25 L 29.3125 -11.484375 Z M 15.9375 -50.765625 L 19.8125 -54.734375 L 24.9375 -54.734375 L 28.421875 -51.015625 L 28.421875 -45.359375 L 24.75 -41.515625 L 19.65625 -41.515625 L 15.9375 -45.4375 Z M 29.03125 -50.84375 L 32.90625 -54.8125 L 38.03125 -54.8125 L 41.515625 -51.09375 L 41.515625 -45.4375 L 37.84375 -41.59375 L 32.75 -41.59375 L 29.03125 -45.53125 Z M 29.03125 -50.84375 "/></g></g></g><g fill="#ffffff" fill-opacity="1"><g transform="translate(83.803664, 206.624986)"><g><path d="M 80 -0.046875 L 78.71875 -0.046875 L 78.71875 -11.484375 L 80 -11.484375 Z M 78.71875 -8.25 L 78.71875 -0.046875 L -1.234375 -0.046875 L -1.234375 -11.484375 L 8.203125 -11.484375 L 8.203125 -31.15625 L 24.578125 -31.15625 L 24.578125 -11.484375 L 35.875 -25.578125 C 38.832031 -29.296875 42.570312 -31.15625 47.09375 -31.15625 L 70.515625 -31.15625 L 78.71875 -22.984375 Z M 62.296875 -11.484375 L 62.296875 -19.703125 L 49.203125 -19.703125 L 42.640625 -11.484375 Z M 62.296875 -11.484375 "/></g></g></g><g fill="#ffffff" fill-opacity="1"><g transform="translate(162.756929, 206.624986)"><g><path d="M 24.578125 -8.25 L 16.421875 -0.046875 L -1.234375 -0.046875 L -1.234375 -11.484375 L 8.203125 -11.484375 L 8.203125 -62.296875 L 24.578125 -62.296875 Z M 24.578125 -8.25 "/></g></g></g><g fill="#ffffff" fill-opacity="1"><g transform="translate(188.140484, 206.624986)"><g><path d="M 23.78125 -0.046875 L 15.578125 -0.046875 L 7.375 -8.203125 L 7.375 -62.265625 L 23.78125 -62.265625 Z M 23.78125 -0.046875 "/></g></g></g><g fill="#ffffff" fill-opacity="1"><g transform="translate(213.684187, 206.624986)"><g/></g></g><g fill="#ffffff" fill-opacity="1"><g transform="translate(233.702763, 206.624986)"><g><path d="M 61.140625 -0.046875 L 59.859375 -0.046875 L 59.859375 -11.484375 L 61.140625 -11.484375 Z M 59.859375 11.484375 L 51.65625 19.703125 L 15.578125 19.703125 L 7.375 11.484375 L 7.375 -31.15625 L 23.78125 -31.15625 L 23.78125 8.203125 L 43.4375 8.203125 L 43.4375 -31.15625 L 59.859375 -31.15625 Z M 27.265625 -24.703125 L 27.265625 -27.34375 L 31.15625 -31.3125 L 36.28125 -31.3125 L 39.765625 -27.59375 L 39.765625 -21.9375 L 36.078125 -18.09375 L 30.984375 -18.09375 L 27.265625 -22.015625 Z M 27.265625 -24.703125 "/></g></g></g><g fill="#ffffff" fill-opacity="1"><g transform="translate(294.118821, 206.624986)"><g><path d="M 34.078125 -0.046875 L 32.796875 -0.046875 L 32.796875 -11.484375 L 34.078125 -11.484375 Z M 32.828125 -0.046875 L -1.28125 -0.046875 L -1.28125 -11.484375 L 16.453125 -11.484375 L 16.453125 -31.15625 L 32.828125 -31.15625 Z M 3.640625 11.21875 L 3.640625 8.5625 L 7.53125 4.609375 L 12.65625 4.609375 L 16.140625 8.328125 L 16.140625 13.96875 L 12.453125 17.8125 L 7.375 17.8125 L 3.640625 13.890625 Z M 16.734375 11.125 L 16.734375 8.484375 L 20.625 4.53125 L 25.75 4.53125 L 29.234375 8.25 L 29.234375 13.890625 L 25.546875 17.734375 L 20.453125 17.734375 L 16.734375 13.8125 Z M 16.734375 11.125 "/></g></g></g><g fill="#ffffff" fill-opacity="1"><g transform="translate(327.629912, 206.624986)"><g><path d="M 45.921875 -0.046875 L -1.234375 -0.046875 L -1.234375 -11.484375 L 8.203125 -11.484375 L 8.203125 -22.984375 L 16.421875 -31.15625 L 41 -31.15625 L 41 -19.703125 L 24.578125 -19.703125 L 24.578125 -11.484375 L 45.921875 -11.484375 Z M 45.921875 -0.046875 "/></g></g></g></svg>